<?xml version="1.0" encoding="UTF-8"?>
<svg id="_레이어_2" data-name="레이어 2" xmlns="http://www.w3.org/2000/svg" viewBox="0 0 367.38 181.92">
  <defs>
    <style>
      .cls-1 {
        fill: #231815;
      }
    </style>
  </defs>
  <g id="_레이어_1-2" data-name="레이어 1">
    <g>
      <path class="cls-1" d="m242.83,38.32h0c10.58,0,19.16-8.51,19.16-19.01v-.3c0-10.5-8.58-19.01-19.16-19.01s-19.16,8.51-19.16,19.01v.3c0,10.5,8.58,19.01,19.16,19.01"/>
      <path class="cls-1" d="m317.89,58.32c-29.84,0-49.49,17.05-51.38,41.2h29.83c1.18-12.07,9.71-19.65,23.2-19.65,12.31,0,18.94,7.11,18.94,15.15,0,5.68-2.84,8.76-10.65,9.95l-17.76,2.6c-25.34,3.55-45.94,12.55-45.94,39.07,0,23.2,17.05,35.28,38.83,35.28s32.67-8.76,38.83-20.13h0v15.87s25.57,0,25.57,0v-67.96c0-32.44-14.21-51.38-49.49-51.38m21.55,74.58c0,17.38-13.93,29.13-30.67,27.56-8.98-.84-16.06-8.54-15.17-17.52.95-9.63,9.69-13.94,22.65-15.73l11.6-1.89c4.97-.47,8.76-1.89,11.6-4.02v11.6Z"/>
      <rect class="cls-1" x="228.26" y="58.74" width="28.89" height="118.91"/>
      <path class="cls-1" d="m220.23,58.74v28.89h-27.15c-3.87,0-7,3.13-7,7v83.03h-28.89v-84.31c0-19.11,15.49-34.61,34.6-34.61h28.43Z"/>
      <path class="cls-1" d="m92.82,112.83h-35.51l17.92-46.12,17.59,46.12Zm-.64-78.85h-33.07L0,177.66h33.21l14.07-37.84h55.55l13.87,37.84h34.6L92.18,33.98Z"/>
    </g>
  </g>
</svg>