<svg id="Aria_logo" data-name="Aria logo" xmlns="http://www.w3.org/2000/svg" width="57.099" height="21.885" viewBox="0 0 57.099 21.885">
  <path id="패스_14" data-name="패스 14" d="M83.492,121.573H88.55l7.688,21.481H91.094l-1.343-4.1H82.035l-1.315,4.1H75.833Zm-.314,13.858h5.458l-1.286-4.013a48.277,48.277,0,0,1-1.372-5.717h-.057s-.743,3.61-1.429,5.717Z" transform="translate(-75.833 -121.573)" fill="#fff"/>
  <path id="패스_15" data-name="패스 15" d="M139.766,139.8h.086c.971-2.137,2.343-3,4.229-3a2.584,2.584,0,0,1,.943.115v3.956h-.115a5.172,5.172,0,0,0-.943-.087c-2.429-.029-4.029,1.5-4.029,4.5v7.132h-4.486v-15.36h4.315Z" transform="translate(-112.502 -130.939)" fill="#fff"/>
  <path id="패스_16" data-name="패스 16" d="M167.671,121.573h4.544v3.956h-4.544Zm.028,6.121h4.487v15.36H167.7Z" transform="translate(-132.319 -121.573)" fill="#fff"/>
  <path id="패스_17" data-name="패스 17" d="M197.2,152.142v-1.877h-.057a5.037,5.037,0,0,1-4.6,2.281c-3,0-5.2-1.616-5.2-4.648,0-3.407,2.658-4.273,5.973-4.677,2.715-.376,3.829-.808,3.829-1.963,0-1.1-.714-1.848-2.258-1.848-1.715,0-2.543.809-2.658,2.021h-4.143c.114-2.627,2.229-5.081,6.744-5.081a8.3,8.3,0,0,1,4.372.925,4.932,4.932,0,0,1,2.314,4.591v10.278Zm.057-5.515v-1.992a9.384,9.384,0,0,1-2.63.866c-1.972.432-2.915.924-2.915,2.252s1,1.819,2.23,1.819A3.016,3.016,0,0,0,197.261,146.628Z" transform="translate(-144.42 -130.661)" fill="#fff"/>
</svg>
