<?xml version="1.0" encoding="UTF-8"?>
<svg id="_레이어_2" data-name="레이어 2" xmlns="http://www.w3.org/2000/svg" viewBox="0 0 145.16 52.46">
  <defs>
    <style>
      .cls-1 {
        fill: #fff;
      }
    </style>
  </defs>
  <g id="_레이어_1-2" data-name="레이어 1">
    <g>
      <g>
        <path class="cls-1" d="m108.83,52.16h2.15v-4.63l4.33-6.79h-2.47l-2.32,3.92c-.18.33-.38.67-.57,1.08-.2-.41-.39-.75-.59-1.08l-2.28-3.92h-2.56l4.31,6.79v4.63Z"/>
        <path class="cls-1" d="m99.18,52.46c3.33,0,5.16-1.99,5.16-4.38v-2.01h-5.16v1.81h3.07v.08c0,1.58-1.22,2.68-3.05,2.68-2.12,0-3.46-1.6-3.46-4.2s1.47-4.2,3.58-4.2c1.52,0,2.53.88,2.68,2.02h2.2c-.21-2.22-2.06-3.83-4.91-3.83-3.45,0-5.74,2.48-5.74,6.01s2.07,6.01,5.65,6.01"/>
        <path class="cls-1" d="m86.32,40.44c-3.2,0-5.6,2.33-5.6,6.01s2.4,6.01,5.6,6.01,5.65-2.19,5.65-6.01-2.45-6.01-5.65-6.01Zm0,10.2c-2.02,0-3.4-1.53-3.4-4.2s1.35-4.2,3.4-4.2,3.44,1.63,3.44,4.2c0,2.69-1.42,4.2-3.44,4.2Z"/>
        <polygon class="cls-1" points="72.23 52.16 80.11 52.16 80.11 50.35 74.37 50.35 74.37 40.74 72.23 40.74 72.23 52.16"/>
        <path class="cls-1" d="m64.38,40.44c-3.2,0-5.6,2.33-5.6,6.01s2.4,6.01,5.6,6.01,5.65-2.19,5.65-6.01-2.45-6.01-5.65-6.01Zm0,10.2c-2.03,0-3.4-1.53-3.4-4.2s1.35-4.2,3.4-4.2,3.45,1.63,3.45,4.2c0,2.69-1.42,4.2-3.45,4.2Z"/>
        <path class="cls-1" d="m46.38,52.16h2.14v-7.46c0-.51,0-.93-.1-1.58l5.52,9.04h2.66v-11.42h-2.14v6.71c0,.6.03,1.22.1,1.71l-5.13-8.42h-3.05v11.42Z"/>
        <polygon class="cls-1" points="34 52.16 36.14 52.16 36.14 47.22 41.41 47.22 41.41 52.16 43.55 52.16 43.55 40.74 41.41 40.74 41.41 45.41 36.14 45.41 36.14 40.74 34 40.74 34 52.16"/>
        <path class="cls-1" d="m26.72,52.46c3.07,0,4.98-1.78,5.26-4.42h-2.14c-.23,1.52-1.35,2.61-3.05,2.61-1.99,0-3.43-1.62-3.43-4.28s1.45-4.11,3.48-4.11c1.68,0,2.66,1.01,2.87,2.5h2.22c-.29-2.71-2.3-4.31-5.09-4.31-3.23,0-5.68,2.25-5.68,5.92,0,3.89,2.17,6.09,5.57,6.09"/>
        <polygon class="cls-1" points="11.47 52.16 19.67 52.16 19.67 50.35 13.61 50.35 13.61 47.17 19.18 47.17 19.18 45.34 13.61 45.34 13.61 42.55 19.42 42.55 19.42 40.74 11.47 40.74 11.47 52.16"/>
        <polygon class="cls-1" points="3.82 52.16 5.96 52.16 5.96 42.55 9.76 42.55 9.76 40.74 0 40.74 0 42.55 3.82 42.55 3.82 52.16"/>
      </g>
      <g>
        <polygon class="cls-1" points="139.22 31.94 141.36 31.94 141.36 22.33 145.16 22.33 145.16 20.52 135.4 20.52 135.4 22.33 139.22 22.33 139.22 31.94"/>
        <path class="cls-1" d="m123.5,31.94h2.14v-7.46c0-.51,0-.93-.1-1.58l5.52,9.04h2.66v-11.42h-2.14v6.71c0,.6.03,1.22.1,1.71l-5.13-8.42h-3.05v11.42Z"/>
        <polygon class="cls-1" points="113.04 31.94 121.23 31.94 121.23 30.13 115.18 30.13 115.18 26.95 120.74 26.95 120.74 25.12 115.18 25.12 115.18 22.33 120.99 22.33 120.99 20.52 113.04 20.52 113.04 31.94"/>
        <path class="cls-1" d="m97.14,31.94h2.04v-7.69c0-.59-.02-1.16-.07-1.78l3.22,9.47h2.76l3.14-9.71c-.05.82-.07,1.44-.07,2.03v7.69h2.05v-11.42h-3.56l-2.61,8.5c-.13.41-.21.72-.29,1.04-.07-.33-.16-.64-.29-1.04l-2.87-8.5h-3.44v11.42Z"/>
        <path class="cls-1" d="m84.1,31.94h2.14v-7.46c0-.51,0-.93-.1-1.58l5.52,9.04h2.66v-11.42h-2.14v6.71c0,.6.03,1.22.1,1.71l-5.13-8.42h-3.05v11.42Z"/>
        <polygon class="cls-1" points="81.78 22.24 81.78 20.52 76.07 20.52 76.07 22.24 77.85 22.24 77.85 30.21 76.07 30.21 76.07 31.94 81.78 31.94 81.78 30.21 79.98 30.21 79.98 22.24 81.78 22.24"/>
        <path class="cls-1" d="m70.37,20.52h-2.45l-4.7,11.43h2.29l1.16-3.12h4.86l1.14,3.12h2.4l-4.7-11.43Zm-3.03,6.5l1.3-3.56c.18-.46.33-.85.47-1.32.13.47.26.85.44,1.32l1.31,3.56h-3.52Z"/>
        <polygon class="cls-1" points="58.16 31.94 60.3 31.94 60.3 22.33 64.1 22.33 64.1 20.52 54.34 20.52 54.34 22.33 58.16 22.33 58.16 31.94"/>
        <path class="cls-1" d="m50.16,27.11c1.83-.21,3.23-1.24,3.23-3.23,0-2.42-1.79-3.36-4.18-3.36h-4.91v11.43h2.1v-4.8h1.32l3.48,4.8h2.59l-3.64-4.83Zm-3.76-1.66v-3.12h2.81c1.4,0,1.99.59,1.99,1.57s-.62,1.55-1.99,1.55h-2.81Z"/>
        <polygon class="cls-1" points="33.84 31.94 42.03 31.94 42.03 30.13 35.98 30.13 35.98 26.95 41.54 26.95 41.54 25.12 35.98 25.12 35.98 22.33 41.79 22.33 41.79 20.52 33.84 20.52 33.84 31.94"/>
        <polygon class="cls-1" points="26.18 31.94 28.32 31.94 28.32 22.33 32.12 22.33 32.12 20.52 22.36 20.52 22.36 22.33 26.18 22.33 26.18 31.94"/>
        <path class="cls-1" d="m10.46,31.94h2.14v-7.46c0-.51,0-.93-.1-1.58l5.52,9.04h2.66v-11.42h-2.14v6.71c0,.6.03,1.22.1,1.71l-5.13-8.42h-3.05v11.42Z"/>
        <polygon class="cls-1" points="0 31.94 8.19 31.94 8.19 30.13 2.14 30.13 2.14 26.95 7.7 26.95 7.7 25.12 2.14 25.12 2.14 22.33 7.95 22.33 7.95 20.52 0 20.52 0 31.94"/>
      </g>
      <g>
        <path class="cls-1" d="m96.83,9.39c.65-.93,1.14-2.09,1.14-3.69h-2.07c-.02.65-.1,1.29-.23,1.78-.05.16-.1.34-.13.56-.07-.08-.21-.23-.34-.38l-1.71-1.88.1-.05c1.42-.82,2.14-1.7,2.14-2.99C95.72.91,94.32,0,92.65,0s-3.26,1.03-3.26,2.77c0,1.01.47,1.65,1.19,2.48l.08.11-.02.02c-1.44.7-2.37,1.8-2.37,3.31,0,2.02,1.71,3.31,3.79,3.31,1.32,0,2.4-.28,3.49-1.24l.87.95h2.56l-2.15-2.33Zm-4.18-7.64c.57,0,1.13.31,1.13,1.13,0,.69-.51,1.22-1.26,1.65l-.15.06-.02-.02c-.56-.56-.88-1.05-.88-1.68,0-.72.54-1.14,1.18-1.14Zm-.29,8.52c-1.09,0-1.98-.59-1.98-1.63,0-.9.62-1.42,1.42-1.89l.06-.05,2.53,2.79c-.69.6-1.32.78-2.04.78Z"/>
        <polygon class="cls-1" points="75.01 11.72 83.2 11.72 83.2 9.91 77.14 9.91 77.14 6.72 82.71 6.72 82.71 4.9 77.14 4.9 77.14 2.1 82.95 2.1 82.95 .29 75.01 .29 75.01 11.72"/>
        <path class="cls-1" d="m66.29,11.72h2.76L73.45.29h-2.33l-2.94,8.21c-.2.54-.34.96-.46,1.45-.13-.49-.28-.91-.47-1.45l-2.92-8.21h-2.38l4.34,11.42Z"/>
        <polygon class="cls-1" points="60.88 2.02 60.88 .29 55.17 .29 55.17 2.02 56.95 2.02 56.95 9.99 55.17 9.99 55.17 11.72 60.88 11.72 60.88 9.99 59.09 9.99 59.09 2.02 60.88 2.02"/>
        <polygon class="cls-1" points="48.02 11.72 50.16 11.72 50.16 2.1 53.96 2.1 53.96 .29 44.2 .29 44.2 2.1 48.02 2.1 48.02 11.72"/>
        <path class="cls-1" d="m40.4.29h-2.45l-4.7,11.43h2.28l1.16-3.12h4.86l1.14,3.12h2.4L40.4.29Zm-3.04,6.5l1.31-3.56c.18-.46.33-.85.47-1.32.13.47.26.85.44,1.32l1.31,3.56h-3.52Z"/>
        <polygon class="cls-1" points="24.13 11.72 32.32 11.72 32.32 9.91 26.26 9.91 26.26 6.72 31.83 6.72 31.83 4.9 26.26 4.9 26.26 2.1 32.07 2.1 32.07 .29 24.13 .29 24.13 11.72"/>
        <path class="cls-1" d="m18.71,6.89c1.83-.21,3.23-1.24,3.23-3.23,0-2.42-1.79-3.36-4.18-3.36h-4.91v11.43h2.1v-4.8h1.32l3.48,4.8h2.59l-3.64-4.83Zm-3.76-1.66v-3.12h2.81c1.4,0,1.99.59,1.99,1.57s-.62,1.55-1.99,1.55h-2.81Z"/>
        <path class="cls-1" d="m5.56,12.01c3.07,0,4.98-1.78,5.26-4.42h-2.14c-.23,1.52-1.35,2.61-3.05,2.61-1.99,0-3.43-1.62-3.43-4.28S3.65,1.81,5.68,1.81c1.68,0,2.66,1.01,2.87,2.5h2.22c-.29-2.71-2.3-4.31-5.09-4.31C2.45,0,0,2.25,0,5.92c0,3.89,2.17,6.09,5.56,6.09"/>
      </g>
    </g>
  </g>
</svg>