<?xml version="1.0" encoding="UTF-8"?>
<svg id="_레이어_2" data-name="레이어 2" xmlns="http://www.w3.org/2000/svg" viewBox="0 0 92.39 92.17">
  <defs>
    <style>
      .cls-1 {
        fill: #fff;
        font-family: SpoqaHanSansNeo-Regular, 'Spoqa Han Sans Neo';
        font-size: 18px;
      }
    </style>
  </defs>
  <g id="_레이어_1-2" data-name="레이어 1">
    <text class="cls-1" transform="translate(14.92 47.67) rotate(-80.86)"><tspan x="0" y="0">H</tspan></text>
    <text class="cls-1" transform="translate(17.51 35.04) rotate(-63.88)"><tspan x="0" y="0">I</tspan></text>
    <text class="cls-1" transform="translate(19.46 30.12) rotate(-48.42)"><tspan x="0" y="0">R</tspan></text>
    <text class="cls-1" transform="translate(27.25 21.94) rotate(-33.05)"><tspan x="0" y="0">I</tspan></text>
    <text class="cls-1" transform="translate(31.3 18.6) rotate(-16.21)"><tspan x="0" y="0">N</tspan></text>
    <text class="cls-1" transform="translate(43.41 15.08) rotate(6.52)"><tspan x="0" y="0">G</tspan></text>
    <text class="cls-1" transform="translate(55.51 16.95) rotate(22.93)"><tspan x="0" y="0">!</tspan></text>
    <text class="cls-1" transform="translate(60.55 19.15) rotate(32.1)"><tspan x="0" y="0"> </tspan></text>
    <text class="cls-1" transform="translate(63.92 20.12) rotate(49.01)"><tspan x="0" y="0">W</tspan></text>
    <text class="cls-1" transform="translate(73.63 31.96) rotate(72.72)"><tspan x="0" y="0">E</tspan></text>
    <text class="cls-1" transform="translate(76.39 42.13) rotate(86.69)"><tspan x="0" y="0">’</tspan></text>
    <text class="cls-1" transform="translate(77.1 46.46) rotate(101.25)"><tspan x="0" y="0">R</tspan></text>
    <text class="cls-1" transform="translate(74.9 57.37) rotate(121.28)"><tspan x="0" y="0">E</tspan></text>
    <text class="cls-1" transform="translate(69.09 66.19) rotate(134.91)"><tspan x="0" y="0"> </tspan></text>
    <text class="cls-1" transform="translate(67.14 69.08) rotate(149.58)"><tspan x="0" y="0">H</tspan></text>
    <text class="cls-1" transform="translate(55.75 75.13) rotate(166.55)"><tspan x="0" y="0">I</tspan></text>
    <text class="cls-1" transform="translate(50.75 76.75) rotate(-178.1)"><tspan x="0" y="0">R</tspan></text>
    <text class="cls-1" transform="translate(39.47 75.98) rotate(-162.63)"><tspan x="0" y="0">I</tspan></text>
    <text class="cls-1" transform="translate(34.32 74.97) rotate(-145.79)"><tspan x="0" y="0">N</tspan></text>
    <text class="cls-1" transform="translate(23.85 67.87) rotate(-123.01)"><tspan x="0" y="0">G</tspan></text>
    <text class="cls-1" transform="translate(17.6 57.36) rotate(-106.66)"><tspan x="0" y="0">!</tspan></text>
    <text class="cls-1" transform="translate(16.09 52.08) rotate(-97.47)"><tspan x="0" y="0"> </tspan></text>
  </g>
</svg>