<?xml version="1.0" encoding="UTF-8"?>
<svg id="_레이어_2" data-name="레이어 2" xmlns="http://www.w3.org/2000/svg" viewBox="0 0 74.81 75.02">
  <defs>
    <style>
      .cls-1 {
        fill: #fff;
        font-family: SpoqaHanSansNeo-Regular, 'Spoqa Han Sans Neo';
        font-size: 8px;
      }
    </style>
  </defs>
  <g id="_레이어_1-2" data-name="레이어 1">
    <text class="cls-1" transform="translate(6.8 38.64) rotate(-86.74)"><tspan x="0" y="0">H</tspan></text>
    <text class="cls-1" transform="translate(7.26 32.71) rotate(-78.84)"><tspan x="0" y="0">I</tspan></text>
    <text class="cls-1" transform="translate(7.67 30.25) rotate(-71.57)"><tspan x="0" y="0">R</tspan></text>
    <text class="cls-1" transform="translate(9.42 25.31) rotate(-64.23)"><tspan x="0" y="0">I</tspan></text>
    <text class="cls-1" transform="translate(10.4 23.02) rotate(-56.34)"><tspan x="0" y="0">N</tspan></text>
    <text class="cls-1" transform="translate(13.66 18.16) rotate(-45.68)"><tspan x="0" y="0">G</tspan></text>
    <text class="cls-1" transform="translate(17.69 14.19) rotate(-38.08)"><tspan x="0" y="0">!</tspan></text>
    <text class="cls-1" transform="translate(19.73 12.63) rotate(-33.79)"><tspan x="0" y="0"> </tspan></text>
    <text class="cls-1" transform="translate(23.04 10.35) rotate(-21.34)"><tspan x="0" y="0">W</tspan></text>
    <text class="cls-1" transform="translate(29.7 7.88) rotate(-10.13)"><tspan x="0" y="0">E</tspan></text>
    <text class="cls-1" transform="translate(34.51 7.12) rotate(-3.58)"><tspan x="0" y="0">’</tspan></text>
    <text class="cls-1" transform="translate(36.59 6.9) rotate(3.18)"><tspan x="0" y="0">R</tspan></text>
    <text class="cls-1" transform="translate(41.77 7.21) rotate(12.55)"><tspan x="0" y="0">E</tspan></text>
    <text class="cls-1" transform="translate(46.52 8.37) rotate(19.05)"><tspan x="0" y="0"> </tspan></text>
    <text class="cls-1" transform="translate(50.32 9.7) rotate(30.42)"><tspan x="0" y="0">H</tspan></text>
    <text class="cls-1" transform="translate(55.39 12.83) rotate(38.33)"><tspan x="0" y="0">I</tspan></text>
    <text class="cls-1" transform="translate(57.41 14.33) rotate(45.56)"><tspan x="0" y="0">R</tspan></text>
    <text class="cls-1" transform="translate(61 18.13) rotate(52.78)"><tspan x="0" y="0">I</tspan></text>
    <text class="cls-1" transform="translate(62.59 20.04) rotate(60.62)"><tspan x="0" y="0">N</tspan></text>
    <text class="cls-1" transform="translate(65.44 25.14) rotate(71.39)"><tspan x="0" y="0">G</tspan></text>
    <text class="cls-1" transform="translate(67.14 30.57) rotate(79.15)"><tspan x="0" y="0">!</tspan></text>
    <text class="cls-1" transform="translate(67.61 33.08) rotate(83.43)"><tspan x="0" y="0"> </tspan></text>
    <text class="cls-1" transform="translate(68.05 37.08) rotate(94.62)"><tspan x="0" y="0">H</tspan></text>
    <text class="cls-1" transform="translate(67.44 43.01) rotate(102.55)"><tspan x="0" y="0">I</tspan></text>
    <text class="cls-1" transform="translate(66.96 45.48) rotate(109.89)"><tspan x="0" y="0">R</tspan></text>
    <text class="cls-1" transform="translate(65.09 50.38) rotate(117.21)"><tspan x="0" y="0">I</tspan></text>
    <text class="cls-1" transform="translate(64.05 52.64) rotate(125.08)"><tspan x="0" y="0">N</tspan></text>
    <text class="cls-1" transform="translate(60.66 57.43) rotate(135.77)"><tspan x="0" y="0">G</tspan></text>
    <text class="cls-1" transform="translate(56.53 61.29) rotate(143.38)"><tspan x="0" y="0">!</tspan></text>
    <text class="cls-1" transform="translate(54.47 62.8) rotate(147.64)"><tspan x="0" y="0"> </tspan></text>
    <text class="cls-1" transform="translate(51.09 64.99) rotate(160.11)"><tspan x="0" y="0">W</tspan></text>
    <text class="cls-1" transform="translate(44.38 67.29) rotate(171.31)"><tspan x="0" y="0">E</tspan></text>
    <text class="cls-1" transform="translate(39.55 67.94) rotate(177.82)"><tspan x="0" y="0">’</tspan></text>
    <text class="cls-1" transform="translate(37.45 68.1) rotate(-175.38)"><tspan x="0" y="0">R</tspan></text>
    <text class="cls-1" transform="translate(32.3 67.66) rotate(-166.02)"><tspan x="0" y="0">E</tspan></text>
    <text class="cls-1" transform="translate(27.59 66.39) rotate(-159.54)"><tspan x="0" y="0"> </tspan></text>
    <text class="cls-1" transform="translate(23.81 64.96) rotate(-148.16)"><tspan x="0" y="0">H</tspan></text>
    <text class="cls-1" transform="translate(18.82 61.71) rotate(-140.25)"><tspan x="0" y="0">I</tspan></text>
    <text class="cls-1" transform="translate(16.85 60.16) rotate(-133.03)"><tspan x="0" y="0">R</tspan></text>
    <text class="cls-1" transform="translate(13.36 56.29) rotate(-125.85)"><tspan x="0" y="0">I</tspan></text>
    <text class="cls-1" transform="translate(11.79 54.3) rotate(-117.9)"><tspan x="0" y="0">N</tspan></text>
    <text class="cls-1" transform="translate(9.08 49.15) rotate(-107.19)"><tspan x="0" y="0">G</tspan></text>
  </g>
</svg>