<?xml version="1.0" encoding="UTF-8"?>
<svg id="_레이어_2" data-name="레이어 2" xmlns="http://www.w3.org/2000/svg" viewBox="0 0 369.38 220.71">
  <defs>
    <style>
      .cls-1 {
        fill: #fff;
      }

      .cls-2 {
        fill: none;
        stroke: #fff;
        stroke-linecap: round;
        stroke-linejoin: round;
        stroke-width: 2px;
      }
    </style>
  </defs>
  <g id="_레이어_1-2" data-name="레이어 1">
    <g>
      <path class="cls-1" d="m361.9,220.41h2.15v-4.63l4.33-6.79h-2.47l-2.32,3.92c-.18.33-.38.67-.57,1.08-.2-.41-.39-.75-.59-1.08l-2.28-3.92h-2.56l4.31,6.79v4.63Zm-9.65.29c3.33,0,5.16-1.99,5.16-4.38v-2.01h-5.16v1.81h3.07v.08c0,1.58-1.22,2.68-3.05,2.68-2.12,0-3.46-1.6-3.46-4.2s1.47-4.2,3.58-4.2c1.52,0,2.53.88,2.68,2.02h2.2c-.21-2.22-2.06-3.83-4.91-3.83-3.45,0-5.74,2.48-5.74,6.01s2.07,6.01,5.65,6.01m-12.86-1.81c-2.03,0-3.4-1.54-3.4-4.2s1.35-4.2,3.4-4.2,3.45,1.63,3.45,4.2c0,2.69-1.42,4.2-3.45,4.2m0,1.81c3.2,0,5.65-2.18,5.65-6.01s-2.45-6.01-5.65-6.01-5.6,2.33-5.6,6.01,2.4,6.01,5.6,6.01m-14.09-.29h7.88v-1.81h-5.75v-9.61h-2.14v11.42Zm-7.85-1.52c-2.02,0-3.4-1.54-3.4-4.2s1.36-4.2,3.4-4.2,3.45,1.63,3.45,4.2c0,2.69-1.42,4.2-3.45,4.2m0,1.81c3.2,0,5.65-2.18,5.65-6.01s-2.45-6.01-5.65-6.01-5.6,2.33-5.6,6.01,2.4,6.01,5.6,6.01m-18-.29h2.14v-7.46c0-.51,0-.93-.1-1.58l5.52,9.04h2.66v-11.42h-2.14v6.71c0,.6.03,1.22.1,1.71l-5.13-8.42h-3.05v11.42Zm-12.37,0h2.14v-4.95h5.27v4.95h2.14v-11.42h-2.14v4.67h-5.27v-4.67h-2.14v11.42Zm-7.28.29c3.07,0,4.98-1.78,5.26-4.42h-2.14c-.23,1.52-1.35,2.61-3.05,2.61-1.99,0-3.43-1.62-3.43-4.28s1.45-4.11,3.48-4.11c1.68,0,2.66,1.01,2.87,2.5h2.22c-.29-2.71-2.3-4.31-5.09-4.31-3.23,0-5.68,2.25-5.68,5.92,0,3.89,2.17,6.09,5.57,6.09m-15.24-.29h8.19v-1.81h-6.06v-3.18h5.57v-1.83h-5.57v-2.79h5.81v-1.81h-7.95v11.42Zm-7.65,0h2.14v-9.61h3.8v-1.81h-9.76v1.81h3.82v9.61Zm-12.91,0h2.14v-9.61h3.8v-1.81h-9.76v1.81h3.82v9.61Zm-15.72,0h2.14v-7.46c0-.51,0-.93-.1-1.58l5.52,9.04h2.66v-11.42h-2.14v6.71c0,.6.03,1.22.1,1.71l-5.13-8.42h-3.05v11.42Zm-10.46,0h8.19v-1.81h-6.06v-3.18h5.57v-1.83h-5.57v-2.79h5.81v-1.81h-7.95v11.42Zm-15.9,0h2.04v-7.69c0-.59-.02-1.16-.07-1.78l3.22,9.47h2.76l3.14-9.71c-.05.82-.07,1.44-.07,2.03v7.69h2.05v-11.42h-3.56l-2.61,8.5c-.13.41-.21.72-.29,1.04-.07-.33-.16-.64-.29-1.04l-2.87-8.5h-3.44v11.42Zm-13.04,0h2.14v-7.46c0-.51,0-.93-.1-1.58l5.52,9.04h2.66v-11.42h-2.14v6.71c0,.6.03,1.22.1,1.71l-5.13-8.42h-3.05v11.42Zm-2.32-9.7v-1.73h-5.71v1.73h1.78v7.97h-1.78v1.73h5.71v-1.73h-1.8v-7.97h1.8Zm-14.44,4.77l1.3-3.56c.18-.46.33-.85.47-1.32.13.47.26.85.44,1.32l1.31,3.56h-3.52Zm5.34,4.93h2.4l-4.7-11.42h-2.45l-4.7,11.42h2.29l1.16-3.12h4.86l1.14,3.12Zm-14.51,0h2.14v-9.61h3.8v-1.81h-9.76v1.81h3.82v9.61Zm-11.76-6.49v-3.12h2.81c1.4,0,1.99.59,1.99,1.57s-.62,1.55-1.99,1.55h-2.81Zm3.76,1.66c1.83-.21,3.23-1.24,3.23-3.23,0-2.42-1.79-3.36-4.18-3.36h-4.91v11.42h2.1v-4.8h1.32l3.48,4.8h2.59l-3.64-4.83Zm-16.32,4.83h8.19v-1.81h-6.06v-3.18h5.57v-1.83h-5.57v-2.79h5.81v-1.81h-7.95v11.42Zm-7.66,0h2.14v-9.61h3.8v-1.81h-9.76v1.81h3.82v9.61Zm-15.72,0h2.14v-7.46c0-.51,0-.93-.1-1.58l5.52,9.04h2.66v-11.42h-2.14v6.71c0,.6.03,1.22.1,1.71l-5.13-8.42h-3.05v11.42Zm-10.46,0h8.19v-1.81h-6.06v-3.18h5.57v-1.83h-5.57v-2.79h5.81v-1.81h-7.95v11.42Zm-11.39-1.45c-1.09,0-1.98-.59-1.98-1.63,0-.9.62-1.42,1.42-1.89l.07-.05,2.53,2.79c-.68.6-1.32.78-2.04.78m.02-5.68l-.02-.02c-.56-.56-.88-1.05-.88-1.68,0-.72.54-1.14,1.18-1.14.57,0,1.13.31,1.13,1.13,0,.69-.51,1.22-1.26,1.65l-.15.07Zm-.31,7.43c1.32,0,2.4-.28,3.49-1.24l.87.94h2.56l-2.15-2.33c.65-.93,1.14-2.09,1.14-3.69h-2.07c-.02.65-.1,1.29-.23,1.78-.05.16-.1.34-.13.56-.06-.08-.21-.23-.34-.38l-1.71-1.88.1-.05c1.42-.82,2.14-1.7,2.14-2.99,0-1.83-1.4-2.74-3.07-2.74s-3.26,1.03-3.26,2.77c0,1.01.47,1.65,1.19,2.48l.08.11-.02.02c-1.44.7-2.37,1.8-2.37,3.32,0,2.02,1.71,3.31,3.79,3.31m-17.06-.29h8.19v-1.81h-6.06v-3.18h5.57v-1.83h-5.57v-2.79h5.81v-1.81h-7.95v11.42Zm-8.72,0h2.76l4.41-11.42h-2.33l-2.94,8.21c-.2.54-.34.96-.46,1.45-.13-.49-.28-.91-.47-1.45l-2.92-8.21h-2.38l4.34,11.42Zm-5.4-9.7v-1.73h-5.71v1.73h1.78v7.97h-1.78v1.73h5.71v-1.73h-1.79v-7.97h1.79Zm-12.86,9.7h2.14v-9.61h3.8v-1.81h-9.76v1.81h3.82v9.61Zm-10.66-4.93l1.3-3.56c.18-.46.33-.85.47-1.32.13.47.26.85.44,1.32l1.31,3.56h-3.52Zm5.34,4.93h2.4l-4.7-11.42h-2.45l-4.7,11.42h2.29l1.16-3.12h4.86l1.14,3.12Zm-18.58,0h8.19v-1.81h-6.06v-3.18h5.57v-1.83h-5.57v-2.79h5.81v-1.81h-7.95v11.42Zm-9.18-6.49v-3.12h2.81c1.4,0,1.99.59,1.99,1.57s-.62,1.55-1.99,1.55h-2.81Zm3.76,1.66c1.83-.21,3.23-1.24,3.23-3.23,0-2.42-1.79-3.36-4.18-3.36h-4.91v11.42h2.1v-4.8h1.32l3.48,4.8h2.59l-3.64-4.83Zm-13.14,5.13c3.07,0,4.98-1.78,5.26-4.42h-2.14c-.23,1.52-1.35,2.61-3.05,2.61-1.99,0-3.43-1.62-3.43-4.28s1.45-4.11,3.48-4.11c1.68,0,2.66,1.01,2.87,2.5h2.22c-.29-2.71-2.3-4.31-5.09-4.31-3.23,0-5.68,2.25-5.68,5.92,0,3.89,2.17,6.09,5.56,6.09"/>
      <path class="cls-2" d="m243.83,39.32h0c10.58,0,19.16-8.51,19.16-19.01v-.3c0-10.5-8.58-19.01-19.16-19.01s-19.16,8.51-19.16,19.01v.3c0,10.5,8.58,19.01,19.16,19.01"/>
      <path class="cls-2" d="m318.89,59.32c-29.84,0-49.49,17.05-51.38,41.2h29.83c1.18-12.07,9.71-19.65,23.2-19.65,12.31,0,18.94,7.11,18.94,15.15,0,5.68-2.84,8.76-10.65,9.95l-17.76,2.6c-25.34,3.55-45.94,12.55-45.94,39.07,0,23.2,17.05,35.28,38.83,35.28s32.67-8.76,38.83-20.13h0v15.87s25.57,0,25.57,0v-67.96c0-32.44-14.21-51.38-49.49-51.38m21.55,74.58c0,17.38-13.93,29.13-30.67,27.56-8.98-.84-16.06-8.54-15.17-17.52.95-9.63,9.69-13.94,22.65-15.73l11.6-1.89c4.97-.47,8.76-1.89,11.6-4.02v11.6Z"/>
      <rect class="cls-2" x="229.26" y="59.74" width="28.89" height="118.91"/>
      <path class="cls-2" d="m221.23,59.74v28.89h-27.15c-3.87,0-7,3.13-7,7v83.03h-28.89v-84.31c0-19.11,15.49-34.61,34.6-34.61h28.43Z"/>
      <path class="cls-2" d="m93.82,113.83h-35.51l17.92-46.12,17.59,46.12Zm-.64-78.85h-33.07L1,178.66h33.21l14.07-37.84h55.55l13.87,37.84h34.6L93.18,34.98Z"/>
    </g>
  </g>
</svg>