<svg id="What_is_Real_" data-name="What is Real?" xmlns="http://www.w3.org/2000/svg" width="280" height="30.207" viewBox="0 0 280 30.207">
  <g id="아트웍_1" data-name="아트웍 1" transform="translate(140 15.103)">
    <g id="그룹_23" data-name="그룹 23" transform="translate(-140 -15.103)">
      <path id="패스_26" data-name="패스 26" d="M21.267,21.941,27.036,4.217h6.8L23.8,32.483H16.69L15.159,16.37,9.15,32.483H2.058L0,4.217H6.817l.756,17.724L13.987,4.217h5.821Z" transform="translate(0 -2.664)" fill="#fff"/>
      <path id="패스_27" data-name="패스 27" d="M106.948,11.066a7.692,7.692,0,0,1,5.765-2.64q3.5,0,4.983,2.058t.957,6.076l-1.875,13.259h-6.6l1.853-13.1a3.377,3.377,0,0,0-.336-2.456,2.593,2.593,0,0,0-2.213-.786,3.668,3.668,0,0,0-3.053,1.281L104.3,29.819H97.712L101.929,0h6.583Z" transform="translate(-61.726)" fill="#fff"/>
      <path id="패스_28" data-name="패스 28" d="M184.473,44.27a6.6,6.6,0,0,1-.359-1.883,7.1,7.1,0,0,1-5.4,2.271,6.6,6.6,0,0,1-4.825-1.8,4.987,4.987,0,0,1-1.452-4.513,6.932,6.932,0,0,1,3.27-5.164,14.3,14.3,0,0,1,7.631-1.747h2.031l.157-1.112q.411-2.907-2.109-2.907a2.412,2.412,0,0,0-2.67,2.3h-6.583a6.953,6.953,0,0,1,3.307-4.944,12.272,12.272,0,0,1,6.92-1.9q4.044,0,6.111,1.961a5.965,5.965,0,0,1,1.643,5.377l-1.315,9.3a8.932,8.932,0,0,0,.273,4.426l-.047.33ZM180.955,40a4.128,4.128,0,0,0,3.445-1.709l.475-3.358h-1.914q-3.439,0-3.872,3.067a1.649,1.649,0,0,0,.4,1.446A1.927,1.927,0,0,0,180.955,40Z" transform="translate(-108.889 -14.452)" fill="#fff"/>
      <path id="패스_29" data-name="패스 29" d="M255.935,9.752l-.739,5.222h3.477l-.642,4.543h-3.477L253.2,29.126a2.248,2.248,0,0,0,.2,1.65q.364.466,1.633.466a10.014,10.014,0,0,0,1.657-.116l-.661,4.678a12.99,12.99,0,0,1-3.791.563q-3.4,0-4.8-1.592t-.938-4.834l1.475-10.424h-2.7l.642-4.543h2.7l.739-5.222Z" transform="translate(-154.944 -6.16)" fill="#fff"/>
      <path id="패스_30" data-name="패스 30" d="M327.318,30.185h-6.6L323.686,9.18h6.6ZM324.061,3.764a3.421,3.421,0,0,1,1.34-2.291A4.349,4.349,0,0,1,328.164.58a3.389,3.389,0,0,1,2.511.893,2.56,2.56,0,0,1,.692,2.291,3.424,3.424,0,0,1-1.34,2.291,4.351,4.351,0,0,1-2.763.893,3.388,3.388,0,0,1-2.511-.893A2.557,2.557,0,0,1,324.061,3.764Z" transform="translate(-202.6 -0.366)" fill="#fff"/>
      <path id="패스_31" data-name="패스 31" d="M373.865,38.369a1.286,1.286,0,0,0-.69-1.339,11.844,11.844,0,0,0-3.192-1.048,13.343,13.343,0,0,1-3.862-1.427,5.521,5.521,0,0,1-2.138-2.145,4.675,4.675,0,0,1-.431-2.893,6.867,6.867,0,0,1,3.077-4.766,11.119,11.119,0,0,1,6.555-1.873,9.858,9.858,0,0,1,6.453,1.883,5.1,5.1,0,0,1,1.84,4.95h-6.6q.357-2.523-2.32-2.524a3,3,0,0,0-1.819.573,2.094,2.094,0,0,0-.905,1.427,1.39,1.39,0,0,0,.659,1.417,7.156,7.156,0,0,0,2.618.893,21.569,21.569,0,0,1,3.193.835q4.535,1.631,3.94,5.843a6.538,6.538,0,0,1-3.231,4.679,12.564,12.564,0,0,1-6.907,1.805,10.637,10.637,0,0,1-4.707-.971,6.6,6.6,0,0,1-2.948-2.64,5.382,5.382,0,0,1-.695-3.514h6.154a2.2,2.2,0,0,0,.676,2.126,3.613,3.613,0,0,0,2.308.67,3.527,3.527,0,0,0,2.1-.544A2.049,2.049,0,0,0,373.865,38.369Z" transform="translate(-228.49 -14.452)" fill="#fff"/>
      <path id="패스_32" data-name="패스 32" d="M466.5,22.485h-3.712l-1.414,10h-6.856l4-28.266h11.193q5.059,0,7.6,2.23t1.96,6.3a10.3,10.3,0,0,1-1.892,4.887,10.414,10.414,0,0,1-4.2,3.142L477.5,32.191l-.041.291h-7.345Zm-2.97-5.241h4.337a4.43,4.43,0,0,0,3.084-1.022,4.551,4.551,0,0,0,1.39-2.851,3.58,3.58,0,0,0-.59-2.87,3.392,3.392,0,0,0-2.783-1.041h-4.337Z" transform="translate(-287.127 -2.664)" fill="#fff"/>
      <path id="패스_33" data-name="패스 33" d="M542.931,44.659q-4.864,0-7.465-2.883a8.8,8.8,0,0,1-1.947-7.5l.077-.544a14.312,14.312,0,0,1,2.006-5.688,10.767,10.767,0,0,1,4.046-3.815,11.712,11.712,0,0,1,5.66-1.349q4.454,0,6.644,2.747t1.5,7.658l-.36,2.543H540a4.01,4.01,0,0,0,1.151,2.776,4.07,4.07,0,0,0,2.943,1.009,6.862,6.862,0,0,0,5.192-2.174l2.508,3.533a10.241,10.241,0,0,1-3.867,2.688A12.855,12.855,0,0,1,542.931,44.659Zm1.624-16.734q-2.891,0-3.976,3.8h6.642l.071-.5a2.92,2.92,0,0,0-.456-2.436A2.8,2.8,0,0,0,544.555,27.925Z" transform="translate(-336.949 -14.452)" fill="#fff"/>
      <path id="패스_34" data-name="패스 34" d="M611.631,44.27a6.612,6.612,0,0,1-.359-1.883,7.1,7.1,0,0,1-5.4,2.271,6.606,6.606,0,0,1-4.825-1.8,4.986,4.986,0,0,1-1.452-4.513,6.932,6.932,0,0,1,3.27-5.164,14.3,14.3,0,0,1,7.631-1.747h2.032l.157-1.112q.411-2.907-2.109-2.907a2.412,2.412,0,0,0-2.67,2.3h-6.583a6.953,6.953,0,0,1,3.307-4.944,12.271,12.271,0,0,1,6.92-1.9q4.044,0,6.11,1.961a5.961,5.961,0,0,1,1.642,5.377l-1.315,9.3a8.932,8.932,0,0,0,.272,4.426l-.047.33ZM608.113,40a4.127,4.127,0,0,0,3.445-1.709l.475-3.358h-1.914q-3.438,0-3.872,3.067a1.648,1.648,0,0,0,.4,1.446A1.926,1.926,0,0,0,608.113,40Z" transform="translate(-378.73 -14.452)" fill="#fff"/>
      <path id="패스_35" data-name="패스 35" d="M673.074,29.819h-6.6L670.688,0h6.6Z" transform="translate(-421.019)" fill="#fff"/>
      <path id="패스_36" data-name="패스 36" d="M714.32,22.867a13.719,13.719,0,0,1,1.278-4.475,8.576,8.576,0,0,1,2.492-2.844,17.073,17.073,0,0,0,2.509-2.2,4.136,4.136,0,0,0,1.064-2.2q.415-2.931-2.125-2.932a2.732,2.732,0,0,0-2.016.854,4.172,4.172,0,0,0-1.089,2.31h-6.6a9.127,9.127,0,0,1,3.317-6.047,11.089,11.089,0,0,1,7.1-2.164q4.356,0,6.466,2t1.588,5.688a7.368,7.368,0,0,1-1.059,2.932,12.182,12.182,0,0,1-2.452,2.7l-2.54,2.077a6.427,6.427,0,0,0-1.593,1.874,8.122,8.122,0,0,0-.755,2.436Zm-1.635,5.9a3.531,3.531,0,0,1,1.379-2.358,4.309,4.309,0,0,1,2.739-.922,3.334,3.334,0,0,1,2.477.922,2.641,2.641,0,0,1,.711,2.358,3.531,3.531,0,0,1-1.379,2.359,4.307,4.307,0,0,1-2.738.922,3.331,3.331,0,0,1-2.477-.922A2.639,2.639,0,0,1,712.685,28.769Z" transform="translate(-448.41 -1.998)" fill="#fff"/>
    </g>
  </g>
</svg>
